PathFileType	4	(X/Y/Z)	Patient4_TMGait_0pt5_02_left_29.trc.trc
DataRate	CameraRate	NumFrames	NumMarkers	Units	OrigDataRate	OrigDataStartFrame	OrigNumFrames
79.096045197740	79.096045197740	4	33	mm	79.096045197740	124	       141
Frame#	Time	Sacral			L.Shoulder			Chest			R.Shoulder			Neck			R.ASIS			L.ASIS			R.Thigh.Superior			R.Thigh.Lateral			R.Thigh.Inferior			R.Patella			L.Thigh.Superior			L.Thigh.Lateral			L.Thigh.Inferior			L.Patella			L.Shank.Superior			L.Shank.Lateral			L.Shank.Inferior			R.Shank.Superior			R.Shank.Lateral			R.Shank.Inferior			R.Heel			R.Midfoot.Superior			R.Midfoot.Lateral			R.Toe			L.Heel			L.Midfoot.Lateral			L.Midfoot.Superior			L.Toe			L.Elbow			L.Wrist			R.Elbow			R.Wrist			
		X1	Y1	Z1	X2	Y2	Z2	X3	Y3	Z3	X4	Y4	Z4	X5	Y5	Z5	X6	Y6	Z6	X7	Y7	Z7	X8	Y8	Z8	X9	Y9	Z9	X10	Y10	Z10	X11	Y11	Z11	X12	Y12	Z12	X13	Y13	Z13	X14	Y14	Z14	X15	Y15	Z15	X16	Y16	Z16	X17	Y17	Z17	X18	Y18	Z18	X19	Y19	Z19	X20	Y20	Z20	X21	Y21	Z21	X22	Y22	Z22	X23	Y23	Z23	X24	Y24	Z24	X25	Y25	Z25	X26	Y26	Z26	X27	Y27	Z27	X28	Y28	Z28	X29	Y29	Z29	X30	Y30	Z30	X31	Y31	Z31	X32	Y32	Z32	X33	Y33	Z33	

124	38.745071428571	688.096301915157	997.904499701176	522.316673549578	839.887694707230	1430.284056697159	336.413784441558	960.136839554165	1358.106492456226	483.639354223318	894.065063594628	1426.497988918405	667.629950375391	854.762065448304	1486.097315024392	488.699025880232	921.080224286828	931.541870738040	622.157696440785	889.662992604708	952.234393011048	349.273776148337	920.097385104237	718.743138974695	593.476986964369	818.966245720466	624.637135095229	658.359017541425	876.227173745882	558.655828291675	575.739301511488	855.937086317703	471.368183732578	578.831207187318	964.783093933268	762.505340791915	381.156035881429	908.515080234568	634.840517688752	307.422015767597	1009.591551051055	574.674225708361	369.923582279819	1033.584455469338	508.662278068238	369.075106688348	1017.746570488509	436.587095778350	359.274692810211	951.531129825153	306.837330221205	309.466690575964	1036.156777650812	208.015772178428	367.301046392473	814.836372931979	388.597920039976	587.656237298597	730.720660461526	297.580356031540	652.628909408922	751.093339859370	197.852789282591	587.762284169644	595.326465120846	44.056562843252	562.547709125500	765.888698279686	95.118726756745	595.859527829017	678.415410561129	36.292517888354	637.174784006849	886.642998229228	42.248613448706	626.073567169530	945.083193394185	38.469155148345	408.527401944568	1017.326622520548	38.300737170811	326.589338882941	1096.158963285730	105.867415592182	347.928809435597	1225.644433311306	63.224291069003	318.130781676064	717.069649335528	1098.924831788003	229.992065345423	719.758621487913	838.627226188314	206.408584102126	1012.221105294591	1105.207509369382	771.250816500637	1212.239582730127	1204.272915923139	661.301662564246	
125	38.757714285714	689.905067057155	996.791375575076	520.104062900065	840.097866179498	1429.098264132614	333.667057624662	960.814564558807	1357.590123598318	480.844164423634	894.606961143237	1425.956166658291	664.830372815256	854.942214041121	1485.215566288504	485.825718941164	922.928206129990	930.685773328508	620.178568779524	891.722071536265	951.100710843339	347.388339697716	920.788925975519	717.482969368415	592.301435990229	818.490747328271	624.097802580908	657.001677537569	875.358936233194	557.462987502219	574.672809198467	854.287976949902	469.958759133655	577.714411556416	967.123686624114	761.509444584808	379.896125897157	910.292126390180	633.704474726816	306.837286503958	1011.662709092328	573.933880265358	369.267329274161	1034.669816748733	506.808990002563	368.872454053145	1018.191150344180	434.252755944242	359.157301735819	949.929392018084	305.446675009719	309.608881096579	1032.507930174442	205.355962092176	367.979431727016	812.180495609639	387.791660184787	586.699248035291	727.133789198168	297.844946110383	652.057869774653	746.241820152561	197.744776885195	587.442872475173	589.067812176257	44.776717755284	562.756713473607	759.859817568509	95.229131134030	595.978004942429	672.219440911460	36.541257883196	637.234650138863	880.480899258515	41.721518524443	626.141097381455	937.832688925178	37.951339763038	409.041699876731	1010.278433129012	37.005891524784	327.182929721306	1090.454842972225	102.760184540633	349.451262835501	1219.407971394378	57.595079842030	319.681013353374	717.654201233622	1097.541011764629	227.753047170027	721.731252043150	837.089486194756	204.525278065416	1015.879234567183	1105.812432555417	768.177406871756	1212.949256013611	1207.949492796935	655.870330652153	
126	38.770357142857	691.617753498457	995.933560686208	517.841180883661	840.497152736085	1428.043631533588	330.805846837723	961.647270321355	1357.153333484831	477.944063880129	895.378566686789	1425.617304314163	661.910734878061	855.376650323669	1484.512281122195	482.800183284100	924.664864402021	929.951374188259	618.087916406243	893.634676679191	950.206561777333	345.391040717125	921.590720882632	716.412584696256	590.976237052791	818.310769649685	623.638916477845	655.485820059862	874.922910599835	556.404651370509	573.482663799550	853.193963663472	468.543967695554	576.559054323779	969.376467772715	760.943336767599	378.664027537873	912.326610198722	633.103183483077	306.058345057038	1013.915288029602	573.654289516413	368.501908805976	1035.891782367046	505.398483648592	368.509963821123	1018.801152774563	432.369871531257	358.824146729767	948.618145945466	304.557518620792	309.384669047583	1029.003463364691	203.217035840832	368.381818078627	809.930164170555	387.029066904253	585.682895794083	723.840791909287	298.282765115262	651.446321741434	741.611312924192	197.784539648866	587.141960767599	582.862706555704	45.864634543250	563.016318100851	753.994672840654	95.456485583756	596.195966908368	666.088789091568	36.976674880456	637.324652594217	874.379112069856	41.125928405040	626.212443631914	930.859594748242	37.673235222298	409.275676282836	1003.519554847771	36.143421510487	327.517959903903	1084.769342633670	100.396111917899	350.658579823116	1213.303827638421	53.173707009587	320.980347412148	718.858034431255	1096.089692116812	225.314186087239	724.473778063681	835.478737454842	202.467141928807	1019.028866326532	1106.371452480300	765.261086000131	1213.824042915149	1210.456353135229	650.742042981525	
127	38.783000000000	693.203871423284	995.381232239814	515.532854340370	841.087710048604	1427.184091952083	327.863334959185	962.626564204200	1356.823122723568	474.961466718681	896.398726421916	1425.516646870980	658.893631020748	856.073412470146	1484.031431859056	479.662767649712	926.243506864472	929.396117057515	615.882386229007	895.362625594769	949.594733091964	343.256458867950	922.469580807473	715.593806155835	589.479937720284	818.447679636426	623.295512854599	653.819442090515	874.969568208279	555.525342934931	572.181376799159	852.738361238936	467.144994973466	575.418728637118	971.529525871157	760.869826098664	377.435146260738	914.583926551679	633.032504470976	305.093491782085	1016.288434491084	573.804041215559	367.595165410199	1037.215133851027	504.426801622369	367.958127020931	1019.514815734687	430.938671276297	358.296659299384	947.531502042589	304.158434992499	308.834290474187	1025.601520709883	201.601924878889	368.532339957448	808.145577468481	386.331506253547	584.640167864031	720.882405217984	298.934357400102	650.806201619698	737.246142457017	198.010922063189	586.876971286175	576.736981937477	47.412343836593	563.321473314350	748.333516201759	95.819187903010	596.522231053449	660.035974530976	37.654949268080	637.444882356816	868.338044796572	40.475036841041	626.286787829080	924.197921792646	37.590412626412	409.294781959521	997.050347632925	35.660482191989	327.634420751665	1079.091612360489	98.765532489482	351.520791742206	1207.323184073137	49.987514770810	321.949510687642	720.644237249619	1094.656582522972	222.704178150971	727.963685770055	833.889559322380	200.245518303808	1021.624520409992	1106.882359834093	762.485955447775	1214.904140064490	1211.769157645389	645.940621275603	
